<svg version="1.1" viewBox="0.0 0.0 393.8083989501312 536.4803149606299" fill="none" stroke="none" stroke-linecap="square" stroke-miterlimit="10" xmlns:xlink="http://www.w3.org/1999/xlink" xmlns="http://www.w3.org/2000/svg"><clipPath id="p.0"><path d="m0 0l393.8084 0l0 536.4803l-393.8084 0l0 -536.4803z" clip-rule="nonzero"/></clipPath><g clip-path="url(#p.0)"><path fill="#f3f3f3" d="m0 0l393.8084 0l0 536.4803l-393.8084 0z" fill-rule="evenodd"/><path fill="#000000" fill-opacity="0.0" d="m223.86252 118.05043c0 13.520508 5.8188934 20.233932 11.637787 27.041016c5.8188934 6.807083 11.637802 13.70784 11.637802 27.41568" fill-rule="evenodd"/><path stroke="#000000" stroke-width="1.0" stroke-linejoin="round" stroke-linecap="butt" d="m223.99539 121.47493l0.01576233 0.20433807c0.032485962 0.38452148 0.070129395 0.76303864 0.11276245 1.1357422c0.17045593 1.4908295 0.4205017 2.8887634 0.73872375 4.2072906c0.6364441 2.637062 1.545639 4.95652 2.6366882 7.0661697c2.1820831 4.2192993 5.0915375 7.5994263 8.000977 11.002975c2.9094543 3.403534 5.8188934 6.8305054 8.000992 11.120056c1.0910339 2.1447754 2.0002441 4.5052032 2.6366882 7.1861725c0.31822205 1.3404846 0.56825256 2.7611084 0.73872375 4.2749634c0.042617798 0.378479 0.08027649 0.7627716 0.11274719 1.1530914l0.01953125 0.25672913" fill-rule="evenodd"/><path fill="#000000" stroke="#000000" stroke-width="1.0" stroke-linecap="butt" d="m223.99538 121.47493l1.1673431 1.0801392l-1.2435303 -3.0438461l-1.003952 3.13105z" fill-rule="evenodd"/><path fill="#000000" stroke="#000000" stroke-width="1.0" stroke-linecap="butt" d="m247.00899 169.08246l-1.166153 -1.0814209l1.2401886 3.0452118l1.0073853 -3.1299438z" fill-rule="evenodd"/><path fill="#000000" fill-opacity="0.0" d="m219.22581 179.25998l0 0c0.06958008 -4.0066833 3.3740234 -7.1976776 7.3806915 -7.1273193l41.081146 0.72154236c1.9240417 0.033798218 3.7560425 0.8305359 5.0929565 2.2149658c1.3368835 1.3844299 2.0691833 3.2431183 2.0357666 5.1671906l-0.50393677 29.018082c-0.06958008 4.0066833 -3.374054 7.197693 -7.380707 7.1273193l-41.08113 -0.7215271l0 0c-4.006668 -0.070373535 -7.198303 -3.3754883 -7.128723 -7.3821716z" fill-rule="evenodd"/><path stroke="#000000" stroke-width="1.0" stroke-linejoin="round" stroke-linecap="butt" d="m219.22581 179.25998l0 0c0.06958008 -4.0066833 3.3740234 -7.1976776 7.3806915 -7.1273193l41.081146 0.72154236c1.9240417 0.033798218 3.7560425 0.8305359 5.0929565 2.2149658c1.3368835 1.3844299 2.0691833 3.2431183 2.0357666 5.1671906l-0.50393677 29.018082c-0.06958008 4.0066833 -3.374054 7.197693 -7.380707 7.1273193l-41.08113 -0.7215271l0 0c-4.006668 -0.070373535 -7.198303 -3.3754883 -7.128723 -7.3821716z" fill-rule="evenodd"/><path fill="#000000" fill-opacity="0.0" d="m230.73326 194.9018l32.07335 0c0.9550781 0 1.8710327 0.3794098 2.5463867 1.0547485c0.6753235 0.67533875 1.0547485 1.5912933 1.0547485 2.5463715l0 18.005188c0 1.6784668E-4 -1.5258789E-4 3.2043457E-4 -3.3569336E-4 3.2043457E-4l-39.27527 -3.2043457E-4l0 0c-1.8310547E-4 0 -3.2043457E-4 -1.5258789E-4 -3.2043457E-4 -3.3569336E-4l3.2043457E-4 -18.004852l0 0c0 -1.9888458 1.6122742 -3.60112 3.60112 -3.60112z" fill-rule="evenodd"/><path stroke="#000000" stroke-width="1.0" stroke-linejoin="round" stroke-linecap="butt" d="m230.73326 194.9018l32.07335 0c0.9550781 0 1.8710327 0.3794098 2.5463867 1.0547485c0.6753235 0.67533875 1.0547485 1.5912933 1.0547485 2.5463715l0 18.005188c0 1.6784668E-4 -1.5258789E-4 3.2043457E-4 -3.3569336E-4 3.2043457E-4l-39.27527 -3.2043457E-4l0 0c-1.8310547E-4 0 -3.2043457E-4 -1.5258789E-4 -3.2043457E-4 -3.3569336E-4l3.2043457E-4 -18.004852l0 0c0 -1.9888458 1.6122742 -3.60112 3.60112 -3.60112z" fill-rule="evenodd"/><path fill="#000000" d="m244.5844 207.56856l0.71875 0.09375q-0.171875 0.640625 -0.640625 1.0q-0.453125 0.34375 -1.1875 0.34375q-0.90625 0 -1.4375 -0.5625q-0.53125 -0.5625 -0.53125 -1.578125q0 -1.046875 0.53125 -1.625q0.546875 -0.578125 1.40625 -0.578125q0.828125 0 1.359375 0.578125q0.53125 0.5625 0.53125 1.59375q0 0.0625 -0.015625 0.1875l-3.09375 0q0.046875 0.671875 0.390625 1.046875q0.34375 0.359375 0.875 0.359375q0.375 0 0.640625 -0.203125q0.28125 -0.203125 0.453125 -0.65625zm-2.3125 -1.125l2.3125 0q-0.046875 -0.53125 -0.265625 -0.796875q-0.328125 -0.40625 -0.875 -0.40625q-0.484375 0 -0.8125 0.328125q-0.328125 0.328125 -0.359375 0.875zm5.4492188 1.84375l0.109375 0.609375q-0.296875 0.078125 -0.53125 0.078125q-0.390625 0 -0.609375 -0.125q-0.203125 -0.125 -0.296875 -0.3125q-0.078125 -0.203125 -0.078125 -0.84375l0 -2.390625l-0.515625 0l0 -0.546875l0.515625 0l0 -1.015625l0.703125 -0.421875l0 1.4375l0.703125 0l0 0.546875l-0.703125 0l0 2.4375q0 0.296875 0.03125 0.390625q0.046875 0.078125 0.125 0.125q0.078125 0.046875 0.234375 0.046875q0.125 0 0.3125 -0.015625zm0.69140625 0.625l0 -5.734375l0.703125 0l0 2.0625q0.484375 -0.578125 1.234375 -0.578125q0.46875 0 0.796875 0.1875q0.34375 0.1875 0.484375 0.515625q0.15625 0.3125 0.15625 0.921875l0 2.625l-0.703125 0l0 -2.625q0 -0.53125 -0.234375 -0.765625q-0.21875 -0.25 -0.640625 -0.25q-0.3125 0 -0.59375 0.171875q-0.265625 0.15625 -0.390625 0.4375q-0.109375 0.265625 -0.109375 0.765625l0 2.265625l-0.703125 0z" fill-rule="nonzero"/><path fill="#000000" fill-opacity="0.0" d="m15.511811 323.02908l0 0c0 -6.1752625 5.006049 -11.181305 11.181325 -11.181305l140.62949 0c2.9654694 0 5.8094788 1.178009 7.9063873 3.2749329c2.0969086 2.0968933 3.2749329 4.940918 3.2749329 7.906372l0 44.72397c0 6.175293 -5.0060425 11.181335 -11.18132 11.181335l-140.62949 0l0 0c-6.175276 0 -11.181325 -5.0060425 -11.181325 -11.181335z" fill-rule="evenodd"/><path stroke="#000000" stroke-width="1.0" stroke-linejoin="round" stroke-linecap="butt" d="m15.511811 323.02908l0 0c0 -6.1752625 5.006049 -11.181305 11.181325 -11.181305l140.62949 0c2.9654694 0 5.8094788 1.178009 7.9063873 3.2749329c2.0969086 2.0968933 3.2749329 4.940918 3.2749329 7.906372l0 44.72397c0 6.175293 -5.0060425 11.181335 -11.18132 11.181335l-140.62949 0l0 0c-6.175276 0 -11.181325 -5.0060425 -11.181325 -11.181335z" fill-rule="evenodd"/><path fill="#000000" d="m59.62115 347.56357l1.4375 -0.125q0.09375 0.859375 0.46875 1.421875q0.375 0.546875 1.15625 0.890625q0.78125 0.328125 1.7500038 0.328125q0.875 0 1.53125 -0.25q0.671875 -0.265625 0.984375 -0.703125q0.328125 -0.453125 0.328125 -0.984375q0 -0.546875 -0.3125 -0.9375q-0.3125 -0.40625 -1.03125 -0.6875q-0.453125 -0.171875 -2.0312538 -0.546875q-1.578125 -0.390625 -2.21875 -0.71875q-0.8125 -0.4375 -1.21875 -1.0625q-0.40625 -0.640625 -0.40625 -1.4375q0 -0.859375 0.484375 -1.609375q0.5 -0.765625 1.4375 -1.15625q0.953125 -0.390625 2.1093788 -0.390625q1.28125 0 2.25 0.421875q0.96875 0.40625 1.484375 1.203125q0.53125 0.796875 0.578125 1.796875l-1.453125 0.109375q-0.125 -1.078125 -0.796875 -1.625q-0.671875 -0.5625 -2.0 -0.5625q-1.3750038 0 -2.0000038 0.5q-0.625 0.5 -0.625 1.21875q0 0.609375 0.4375 1.015625q0.4375 0.390625 2.2812538 0.8125q1.859375 0.421875 2.546875 0.734375q1.0 0.453125 1.46875 1.171875q0.484375 0.703125 0.484375 1.625q0 0.90625 -0.53125 1.71875q-0.515625 0.8125 -1.5 1.265625q-0.984375 0.453125 -2.203125 0.453125q-1.5625038 0 -2.6093788 -0.453125q-1.046875 -0.46875 -1.65625 -1.375q-0.59375 -0.90625 -0.625 -2.0625zm11.453129 3.6875l0 -11.453125l1.515625 0l0 11.453125l-1.515625 0zm4.1796875 0l0 -11.453125l4.328125 0q1.140625 0 1.734375 0.109375q0.84375 0.140625 1.40625 0.53125q0.578125 0.390625 0.921875 1.109375q0.359375 0.703125 0.359375 1.5625q0 1.453125 -0.9375 2.46875q-0.921875 1.015625 -3.359375 1.015625l-2.9375 0l0 4.65625l-1.515625 0zm1.515625 -6.015625l2.96875 0q1.46875 0 2.078125 -0.546875q0.625 -0.546875 0.625 -1.53125q0 -0.71875 -0.375 -1.234375q-0.359375 -0.515625 -0.953125 -0.671875q-0.375 -0.109375 -1.40625 -0.109375l-2.9375 0l0 4.09375zm13.3125 6.015625l0 -11.453125l4.328125 0q1.140625 0 1.734375 0.109375q0.84375 0.140625 1.40625 0.53125q0.578125 0.390625 0.921875 1.109375q0.359375 0.703125 0.359375 1.5625q0 1.453125 -0.9375 2.46875q-0.921875 1.015625 -3.359375 1.015625l-2.9375 0l0 4.65625l-1.515625 0zm1.515625 -6.015625l2.96875 0q1.46875 0 2.078125 -0.546875q0.625 -0.546875 0.625 -1.53125q0 -0.71875 -0.375 -1.234375q-0.359375 -0.515625 -0.953125 -0.671875q-0.375 -0.109375 -1.40625 -0.109375l-2.9375 0l0 4.09375zm8.984375 6.015625l0 -11.453125l1.40625 0l0 4.109375q0.984375 -1.140625 2.484375 -1.140625q0.921875 0 1.59375 0.359375q0.6875 0.359375 0.96875 1.0q0.296875 0.640625 0.296875 1.859375l0 5.265625l-1.40625 0l0 -5.265625q0 -1.046875 -0.453125 -1.53125q-0.453125 -0.484375 -1.296875 -0.484375q-0.625 0 -1.171875 0.328125q-0.546875 0.328125 -0.78125 0.890625q-0.234375 0.546875 -0.234375 1.515625l0 4.546875l-1.40625 0zm8.3671875 -4.15625q0 -2.296875 1.28125 -3.40625q1.078125 -0.921875 2.609375 -0.921875q1.71875 0 2.796875 1.125q1.09375 1.109375 1.09375 3.09375q0 1.59375 -0.484375 2.515625q-0.484375 0.921875 -1.40625 1.4375q-0.90625 0.5 -2.0 0.5q-1.734375 0 -2.8125 -1.109375q-1.078125 -1.125 -1.078125 -3.234375zm1.453125 0q0 1.59375 0.6875 2.390625q0.703125 0.796875 1.75 0.796875q1.046875 0 1.734375 -0.796875q0.703125 -0.796875 0.703125 -2.4375q0 -1.53125 -0.703125 -2.328125q-0.6875 -0.796875 -1.734375 -0.796875q-1.046875 0 -1.75 0.796875q-0.6875 0.78125 -0.6875 2.375zm7.9765625 4.15625l0 -8.296875l1.265625 0l0 1.171875q0.90625 -1.359375 2.640625 -1.359375q0.75 0 1.375 0.265625q0.625 0.265625 0.9375 0.703125q0.3125 0.4375 0.4375 1.046875q0.078125 0.390625 0.078125 1.359375l0 5.109375l-1.40625 0l0 -5.046875q0 -0.859375 -0.171875 -1.28125q-0.15625 -0.4375 -0.578125 -0.6875q-0.40625 -0.25 -0.96875 -0.25q-0.90625 0 -1.5625 0.578125q-0.640625 0.5625 -0.640625 2.15625l0 4.53125l-1.40625 0zm14.5703125 -2.671875l1.453125 0.171875q-0.34375 1.28125 -1.28125 1.984375q-0.921875 0.703125 -2.359375 0.703125q-1.828125 0 -2.890625 -1.125q-1.0625 -1.125 -1.0625 -3.140625q0 -2.09375 1.078125 -3.25q1.078125 -1.15625 2.796875 -1.15625q1.65625 0 2.703125 1.140625q1.0625 1.125 1.0625 3.171875q0 0.125 0 0.375l-6.1875 0q0.078125 1.375 0.765625 2.109375q0.703125 0.71875 1.734375 0.71875q0.78125 0 1.328125 -0.40625q0.546875 -0.40625 0.859375 -1.296875zm-4.609375 -2.28125l4.625 0q-0.09375 -1.046875 -0.53125 -1.5625q-0.671875 -0.8125 -1.734375 -0.8125q-0.96875 0 -1.640625 0.65625q-0.65625 0.640625 -0.71875 1.71875z" fill-rule="nonzero"/><path fill="#000000" fill-opacity="0.0" d="m246.76994 216.5081c0 23.838455 10.976364 35.759583 21.952744 47.676926c10.976379 11.917297 21.952759 23.83081 21.952759 47.66165" fill-rule="evenodd"/><path stroke="#000000" stroke-width="1.0" stroke-linejoin="round" stroke-linecap="butt" d="m246.8484 219.93428l0.018203735 0.37983704c0.009124756 0.17633057 0.01889038 0.3519745 0.029266357 0.526947c0.08308411 1.399704 0.2063446 2.755783 0.36712646 4.071106c0.32157898 2.630661 0.79322815 5.0983734 1.3934937 7.4264374c1.2005463 4.656082 2.9156036 8.753494 4.9736786 12.478378c4.1161346 7.449753 9.604324 13.409363 15.092514 19.368042c5.4881897 5.9586487 10.976379 11.916351 15.092529 19.36325c2.058075 3.7234497 3.7731323 7.8191833 4.9736633 12.473511c0.60028076 2.3271484 1.0718994 4.7939453 1.3934937 7.4236755c0.16079712 1.3148499 0.2840271 2.6704407 0.36712646 4.069702c0.010375977 0.17486572 0.020141602 0.35046387 0.029266357 0.5267334l0.018127441 0.37860107" fill-rule="evenodd"/><path fill="#000000" stroke="#000000" stroke-width="1.0" stroke-linecap="butt" d="m246.8484 219.93428l1.1500397 1.0985413l-1.1950378 -3.063202l-1.0535431 3.1147003z" fill-rule="evenodd"/><path fill="#000000" stroke="#000000" stroke-width="1.0" stroke-linecap="butt" d="m290.59692 308.4205l-1.1500549 -1.0985107l1.1950684 3.0631714l1.0534973 -3.1147156z" fill-rule="evenodd"/><path fill="#000000" fill-opacity="0.0" d="m218.16273 470.8795l0 0c0 -5.90567 4.7874756 -10.693146 10.693115 -10.693146l123.65312 0c2.8359985 0 5.555847 1.1266174 7.5611877 3.131958c2.0053406 2.0053406 3.1319275 4.725189 3.1319275 7.5611877l0 42.77121c0 5.9056396 -4.7874756 10.693115 -10.693115 10.693115l-123.65312 0c-5.9056396 0 -10.693115 -4.7874756 -10.693115 -10.693115z" fill-rule="evenodd"/><path stroke="#000000" stroke-width="1.0" stroke-linejoin="round" stroke-linecap="butt" stroke-dasharray="1.0,3.0" d="m218.16273 470.8795l0 0c0 -5.90567 4.7874756 -10.693146 10.693115 -10.693146l123.65312 0c2.8359985 0 5.555847 1.1266174 7.5611877 3.131958c2.0053406 2.0053406 3.1319275 4.725189 3.1319275 7.5611877l0 42.77121c0 5.9056396 -4.7874756 10.693115 -10.693115 10.693115l-123.65312 0c-5.9056396 0 -10.693115 -4.7874756 -10.693115 -10.693115z" fill-rule="evenodd"/><path fill="#000000" d="m265.0535 498.1251l0 -11.453125l1.515625 0l0 11.453125l-1.515625 0zm4.0078125 0l0 -8.296875l1.265625 0l0 1.171875q0.90625 -1.359375 2.640625 -1.359375q0.75 0 1.375 0.265625q0.625 0.265625 0.9375 0.703125q0.3125 0.4375 0.4375 1.046875q0.078125 0.390625 0.078125 1.359375l0 5.109375l-1.40625 0l0 -5.046875q0 -0.859375 -0.171875 -1.28125q-0.15625 -0.4375 -0.578125 -0.6875q-0.40625 -0.25 -0.96875 -0.25q-0.90625 0 -1.5625 0.578125q-0.640625 0.5625 -0.640625 2.15625l0 4.53125l-1.40625 0zm11.9609375 -1.265625l0.203125 1.25q-0.59375 0.125 -1.0625 0.125q-0.765625 0 -1.1875 -0.234375q-0.421875 -0.25 -0.59375 -0.640625q-0.171875 -0.40625 -0.171875 -1.671875l0 -4.765625l-1.03125 0l0 -1.09375l1.03125 0l0 -2.0625l1.40625 -0.84375l0 2.90625l1.40625 0l0 1.09375l-1.40625 0l0 4.84375q0 0.609375 0.0625 0.78125q0.078125 0.171875 0.25 0.28125q0.171875 0.09375 0.484375 0.09375q0.234375 0 0.609375 -0.0625zm7.0546875 -1.40625l1.453125 0.171875q-0.34375 1.28125 -1.28125 1.984375q-0.921875 0.703125 -2.359375 0.703125q-1.828125 0 -2.890625 -1.125q-1.0625 -1.125 -1.0625 -3.140625q0 -2.09375 1.078125 -3.25q1.078125 -1.15625 2.796875 -1.15625q1.65625 0 2.703125 1.140625q1.0625 1.125 1.0625 3.171875q0 0.125 0 0.375l-6.1875 0q0.078125 1.375 0.765625 2.109375q0.703125 0.71875 1.734375 0.71875q0.78125 0 1.328125 -0.40625q0.546875 -0.40625 0.859375 -1.296875zm-4.609375 -2.28125l4.625 0q-0.09375 -1.046875 -0.53125 -1.5625q-0.671875 -0.8125 -1.734375 -0.8125q-0.96875 0 -1.640625 0.65625q-0.65625 0.640625 -0.71875 1.71875zm7.8203125 4.953125l0 -8.296875l1.265625 0l0 1.25q0.484375 -0.875 0.890625 -1.15625q0.40625 -0.28125 0.90625 -0.28125q0.703125 0 1.4375 0.453125l-0.484375 1.296875q-0.515625 -0.296875 -1.03125 -0.296875q-0.453125 0 -0.828125 0.28125q-0.359375 0.265625 -0.515625 0.765625q-0.234375 0.75 -0.234375 1.640625l0 4.34375l-1.40625 0zm5.34375 0l0 -8.296875l1.265625 0l0 1.171875q0.90625 -1.359375 2.640625 -1.359375q0.75 0 1.375 0.265625q0.625 0.265625 0.9375 0.703125q0.3125 0.4375 0.4375 1.046875q0.078125 0.390625 0.078125 1.359375l0 5.109375l-1.40625 0l0 -5.046875q0 -0.859375 -0.171875 -1.28125q-0.15625 -0.4375 -0.578125 -0.6875q-0.40625 -0.25 -0.96875 -0.25q-0.90625 0 -1.5625 0.578125q-0.640625 0.5625 -0.640625 2.15625l0 4.53125l-1.40625 0zm14.5703125 -2.671875l1.453125 0.171875q-0.34375 1.28125 -1.28125 1.984375q-0.921875 0.703125 -2.359375 0.703125q-1.828125 0 -2.890625 -1.125q-1.0625 -1.125 -1.0625 -3.140625q0 -2.09375 1.078125 -3.25q1.078125 -1.15625 2.796875 -1.15625q1.65625 0 2.703125 1.140625q1.0625 1.125 1.0625 3.171875q0 0.125 0 0.375l-6.1875 0q0.078125 1.375 0.765625 2.109375q0.703125 0.71875 1.734375 0.71875q0.78125 0 1.328125 -0.40625q0.546875 -0.40625 0.859375 -1.296875zm-4.609375 -2.28125l4.625 0q-0.09375 -1.046875 -0.53125 -1.5625q-0.671875 -0.8125 -1.734375 -0.8125q-0.96875 0 -1.640625 0.65625q-0.65625 0.640625 -0.71875 1.71875zm10.8984375 3.6875l0.203125 1.25q-0.59375 0.125 -1.0625 0.125q-0.765625 0 -1.1875 -0.234375q-0.421875 -0.25 -0.59375 -0.640625q-0.171875 -0.40625 -0.171875 -1.671875l0 -4.765625l-1.03125 0l0 -1.09375l1.03125 0l0 -2.0625l1.40625 -0.84375l0 2.90625l1.40625 0l0 1.09375l-1.40625 0l0 4.84375q0 0.609375 0.0625 0.78125q0.078125 0.171875 0.25 0.28125q0.171875 0.09375 0.484375 0.09375q0.234375 0 0.609375 -0.0625z" fill-rule="nonzero"/><path fill="#000000" fill-opacity="0.0" d="m290.6824 413.97113l0 46.204712" fill-rule="evenodd"/><path stroke="#000000" stroke-width="1.0" stroke-linejoin="round" stroke-linecap="butt" stroke-dasharray="1.0,3.0" d="m290.6824 418.47113l0 37.204712" fill-rule="evenodd"/><path stroke="#000000" stroke-width="1.0" stroke-linecap="butt" d="m291.78818 418.47113l-1.1057739 -3.038086l-1.1057739 3.038086z" fill-rule="evenodd"/><path stroke="#000000" stroke-width="1.0" stroke-linecap="butt" d="m289.57663 455.67584l1.1057739 3.0381165l1.1057739 -3.0381165z" fill-rule="evenodd"/><path fill="#000000" fill-opacity="0.0" d="m29.27559 470.8795l0 0c0 -5.90567 4.7874775 -10.693146 10.693129 -10.693146l114.07831 0c2.8359985 0 5.555832 1.1266174 7.5611877 3.131958c2.0053406 2.0053406 3.1319427 4.725189 3.1319427 7.5611877l0 42.77121c0 5.9056396 -4.7874756 10.693115 -10.6931305 10.693115l-114.07831 0c-5.905651 0 -10.693129 -4.7874756 -10.693129 -10.693115z" fill-rule="evenodd"/><path stroke="#000000" stroke-width="1.0" stroke-linejoin="round" stroke-linecap="butt" stroke-dasharray="1.0,3.0" d="m29.27559 470.8795l0 0c0 -5.90567 4.7874775 -10.693146 10.693129 -10.693146l114.07831 0c2.8359985 0 5.555832 1.1266174 7.5611877 3.131958c2.0053406 2.0053406 3.1319427 4.725189 3.1319427 7.5611877l0 42.77121c0 5.9056396 -4.7874756 10.693115 -10.6931305 10.693115l-114.07831 0c-5.905651 0 -10.693129 -4.7874756 -10.693129 -10.693115z" fill-rule="evenodd"/><path fill="#000000" d="m65.86334 498.1251l0 -11.453125l7.734375 0l0 1.34375l-6.21875 0l0 3.546875l5.375 0l0 1.359375l-5.375 0l0 5.203125l-1.515625 0zm9.5078125 0l0 -8.296875l1.265625 0l0 1.25q0.484375 -0.875 0.890625 -1.15625q0.40625 -0.28125 0.90625 -0.28125q0.703125 0 1.4375 0.453125l-0.484375 1.296875q-0.515625 -0.296875 -1.03125 -0.296875q-0.453125 0 -0.828125 0.28125q-0.359375 0.265625 -0.515625 0.765625q-0.234375 0.75 -0.234375 1.640625l0 4.34375l-1.40625 0zm11.015625 -2.671875l1.453125 0.171875q-0.34375 1.28125 -1.28125 1.984375q-0.921875 0.703125 -2.359375 0.703125q-1.828125 0 -2.890625 -1.125q-1.0625 -1.125 -1.0625 -3.140625q0 -2.09375 1.078125 -3.25q1.078125 -1.15625 2.796875 -1.15625q1.65625 0 2.703125 1.140625q1.0625 1.125 1.0625 3.171875q0 0.125 0 0.375l-6.1875 0q0.078125 1.375 0.765625 2.109375q0.703125 0.71875 1.734375 0.71875q0.78125 0 1.328125 -0.40625q0.546875 -0.40625 0.859375 -1.296875zm-4.609375 -2.28125l4.625 0q-0.09375 -1.046875 -0.53125 -1.5625q-0.671875 -0.8125 -1.734375 -0.8125q-0.96875 0 -1.640625 0.65625q-0.65625 0.640625 -0.71875 1.71875zm13.5078125 2.28125l1.453125 0.171875q-0.34375 1.28125 -1.28125 1.984375q-0.921875 0.703125 -2.359375 0.703125q-1.828125 0 -2.890625 -1.125q-1.0625 -1.125 -1.0625 -3.140625q0 -2.09375 1.078125 -3.25q1.078125 -1.15625 2.796875 -1.15625q1.65625 0 2.703125 1.140625q1.0625 1.125 1.0625 3.171875q0 0.125 0 0.375l-6.1875 0q0.078125 1.375 0.765625 2.109375q0.703125 0.71875 1.734375 0.71875q0.78125 0 1.328125 -0.40625q0.546875 -0.40625 0.859375 -1.296875zm-4.609375 -2.28125l4.625 0q-0.09375 -1.046875 -0.53125 -1.5625q-0.671875 -0.8125 -1.734375 -0.8125q-0.96875 0 -1.640625 0.65625q-0.65625 0.640625 -0.71875 1.71875zm8.0078125 4.953125l0 -11.453125l4.328125 0q1.140625 0 1.734375 0.109375q0.84375 0.140625 1.40625 0.53125q0.578125 0.390625 0.921875 1.109375q0.359375 0.703125 0.359375 1.5625q0 1.453125 -0.9375 2.46875q-0.921875 1.015625 -3.359375 1.015625l-2.9375 0l0 4.65625l-1.515625 0zm1.515625 -6.015625l2.96875 0q1.46875 0 2.078125 -0.546875q0.625 -0.546875 0.625 -1.53125q0 -0.71875 -0.375 -1.234375q-0.359375 -0.515625 -0.953125 -0.671875q-0.375 -0.109375 -1.40625 -0.109375l-2.9375 0l0 4.09375zm9.09375 6.015625l0 -11.453125l4.296875 0q1.3125 0 2.109375 0.34375q0.796875 0.34375 1.234375 1.078125q0.453125 0.71875 0.453125 1.5q0 0.734375 -0.40625 1.390625q-0.390625 0.640625 -1.1875 1.046875q1.03125 0.296875 1.59375 1.03125q0.5625 0.734375 0.5625 1.734375q0 0.8125 -0.34375 1.5q-0.34375 0.6875 -0.84375 1.0625q-0.5 0.375 -1.25 0.578125q-0.75 0.1875 -1.84375 0.1875l-4.375 0zm1.515625 -6.640625l2.484375 0q1.0 0 1.4375 -0.140625q0.578125 -0.171875 0.875 -0.5625q0.296875 -0.40625 0.296875 -1.0q0 -0.578125 -0.28125 -1.0q-0.265625 -0.4375 -0.78125 -0.59375q-0.5 -0.171875 -1.734375 -0.171875l-2.296875 0l0 3.46875zm0 5.28125l2.859375 0q0.734375 0 1.03125 -0.046875q0.515625 -0.09375 0.859375 -0.3125q0.359375 -0.21875 0.578125 -0.640625q0.234375 -0.421875 0.234375 -0.96875q0 -0.640625 -0.328125 -1.109375q-0.328125 -0.46875 -0.90625 -0.65625q-0.578125 -0.203125 -1.671875 -0.203125l-2.65625 0l0 3.9375zm8.0625 1.359375l4.421875 -5.96875l-3.90625 -5.484375l1.8125 0l2.078125 2.9375q0.640625 0.90625 0.921875 1.40625q0.375 -0.625 0.90625 -1.3125l2.296875 -3.03125l1.65625 0l-4.03125 5.390625l4.34375 6.0625l-1.875 0l-2.890625 -4.09375q-0.234375 -0.34375 -0.5 -0.765625q-0.375 0.625 -0.546875 0.859375l-2.875 4.0l-1.8125 0z" fill-rule="nonzero"/><path fill="#000000" fill-opacity="0.0" d="m264.18372 191.17061l93.03937 0l0 29.070862l-93.03937 0z" fill-rule="evenodd"/><path fill="#0000ff" d="m281.5452 207.8506l0 -5.734375l4.140625 0l0 0.6875l-3.390625 0l0 1.75l3.171875 0l0 0.671875l-3.171875 0l0 1.953125l3.515625 0l0 0.671875l-4.265625 0zm6.7578125 -0.625l0.109375 0.609375q-0.296875 0.078125 -0.53125 0.078125q-0.390625 0 -0.609375 -0.125q-0.203125 -0.125 -0.296875 -0.3125q-0.078125 -0.203125 -0.078125 -0.84375l0 -2.390625l-0.515625 0l0 -0.546875l0.515625 0l0 -1.015625l0.703125 -0.421875l0 1.4375l0.703125 0l0 0.546875l-0.703125 0l0 2.4375q0 0.296875 0.03125 0.390625q0.046875 0.078125 0.125 0.125q0.078125 0.046875 0.234375 0.046875q0.125 0 0.3125 -0.015625zm0.69140625 0.625l0 -5.734375l0.703125 0l0 2.0625q0.484375 -0.578125 1.234375 -0.578125q0.46875 0 0.796875 0.1875q0.34375 0.1875 0.484375 0.515625q0.15625 0.3125 0.15625 0.921875l0 2.625l-0.703125 0l0 -2.625q0 -0.53125 -0.234375 -0.765625q-0.21875 -0.25 -0.640625 -0.25q-0.3125 0 -0.59375 0.171875q-0.265625 0.15625 -0.390625 0.4375q-0.109375 0.265625 -0.109375 0.765625l0 2.265625l-0.703125 0zm7.2929688 -1.34375l0.71875 0.09375q-0.171875 0.640625 -0.640625 1.0q-0.453125 0.34375 -1.1875 0.34375q-0.90625 0 -1.4375 -0.5625q-0.53125 -0.5625 -0.53125 -1.578125q0 -1.046875 0.53125 -1.625q0.546875 -0.578125 1.40625 -0.578125q0.828125 0 1.359375 0.578125q0.53125 0.5625 0.53125 1.59375q0 0.0625 -0.015625 0.1875l-3.09375 0q0.046875 0.671875 0.390625 1.046875q0.34375 0.359375 0.875 0.359375q0.375 0 0.640625 -0.203125q0.28125 -0.203125 0.453125 -0.65625zm-2.3125 -1.125l2.3125 0q-0.046875 -0.53125 -0.265625 -0.796875q-0.328125 -0.40625 -0.875 -0.40625q-0.484375 0 -0.8125 0.328125q-0.328125 0.328125 -0.359375 0.875zm3.9023438 2.46875l0 -4.15625l0.640625 0l0 0.640625q0.234375 -0.453125 0.4375 -0.59375q0.21875 -0.140625 0.453125 -0.140625q0.359375 0 0.734375 0.234375l-0.25 0.65625q-0.25 -0.15625 -0.515625 -0.15625q-0.234375 0 -0.421875 0.140625q-0.171875 0.140625 -0.25 0.375q-0.125 0.375 -0.125 0.828125l0 2.171875l-0.703125 0zm2.6796875 0l0 -4.15625l0.625 0l0 0.59375q0.46875 -0.6875 1.328125 -0.6875q0.375 0 0.6875 0.140625q0.3125 0.140625 0.46875 0.359375q0.15625 0.21875 0.21875 0.515625q0.046875 0.1875 0.046875 0.6875l0 2.546875l-0.703125 0l0 -2.53125q0 -0.421875 -0.09375 -0.625q-0.078125 -0.21875 -0.296875 -0.34375q-0.203125 -0.140625 -0.484375 -0.140625q-0.4375 0 -0.765625 0.296875q-0.328125 0.28125 -0.328125 1.078125l0 2.265625l-0.703125 0zm7.2929688 -1.34375l0.71875 0.09375q-0.171875 0.640625 -0.640625 1.0q-0.453125 0.34375 -1.1875 0.34375q-0.90625 0 -1.4375 -0.5625q-0.53125 -0.5625 -0.53125 -1.578125q0 -1.046875 0.53125 -1.625q0.546875 -0.578125 1.40625 -0.578125q0.828125 0 1.359375 0.578125q0.53125 0.5625 0.53125 1.59375q0 0.0625 -0.015625 0.1875l-3.09375 0q0.046875 0.671875 0.390625 1.046875q0.34375 0.359375 0.875 0.359375q0.375 0 0.640625 -0.203125q0.28125 -0.203125 0.453125 -0.65625zm-2.3125 -1.125l2.3125 0q-0.046875 -0.53125 -0.265625 -0.796875q-0.328125 -0.40625 -0.875 -0.40625q-0.484375 0 -0.8125 0.328125q-0.328125 0.328125 -0.359375 0.875zm5.4492188 1.84375l0.109375 0.609375q-0.296875 0.078125 -0.53125 0.078125q-0.390625 0 -0.609375 -0.125q-0.203125 -0.125 -0.296875 -0.3125q-0.078125 -0.203125 -0.078125 -0.84375l0 -2.390625l-0.515625 0l0 -0.546875l0.515625 0l0 -1.015625l0.703125 -0.421875l0 1.4375l0.703125 0l0 0.546875l-0.703125 0l0 2.4375q0 0.296875 0.03125 0.390625q0.046875 0.078125 0.125 0.125q0.078125 0.046875 0.234375 0.046875q0.125 0 0.3125 -0.015625zm5.6171875 0.109375q-0.390625 0.328125 -0.75 0.46875q-0.359375 0.140625 -0.78125 0.140625q-0.671875 0 -1.046875 -0.328125q-0.359375 -0.34375 -0.359375 -0.859375q0 -0.3125 0.125 -0.5625q0.140625 -0.25 0.359375 -0.390625q0.234375 -0.15625 0.515625 -0.234375q0.203125 -0.0625 0.625 -0.109375q0.859375 -0.109375 1.25 -0.25q0.015625 -0.140625 0.015625 -0.171875q0 -0.4375 -0.203125 -0.609375q-0.265625 -0.234375 -0.796875 -0.234375q-0.5 0 -0.734375 0.171875q-0.234375 0.171875 -0.359375 0.609375l-0.6875 -0.09375q0.09375 -0.4375 0.3125 -0.703125q0.21875 -0.28125 0.625 -0.421875q0.40625 -0.15625 0.9375 -0.15625q0.53125 0 0.859375 0.125q0.34375 0.125 0.5 0.328125q0.15625 0.1875 0.21875 0.46875q0.03125 0.1875 0.03125 0.65625l0 0.9375q0 0.96875 0.046875 1.234375q0.046875 0.265625 0.171875 0.5l-0.734375 0q-0.109375 -0.21875 -0.140625 -0.515625zm-0.0625 -1.5625q-0.375 0.15625 -1.140625 0.265625q-0.4375 0.0625 -0.625 0.140625q-0.171875 0.078125 -0.265625 0.234375q-0.09375 0.140625 -0.09375 0.328125q0 0.28125 0.203125 0.46875q0.21875 0.1875 0.625 0.1875q0.40625 0 0.71875 -0.171875q0.328125 -0.1875 0.46875 -0.5q0.109375 -0.234375 0.109375 -0.703125l0 -0.25zm4.4960938 2.078125l0 -0.53125q-0.390625 0.625 -1.15625 0.625q-0.5 0 -0.921875 -0.265625q-0.40625 -0.28125 -0.640625 -0.765625q-0.21875 -0.5 -0.21875 -1.140625q0 -0.609375 0.203125 -1.109375q0.203125 -0.515625 0.609375 -0.78125q0.421875 -0.28125 0.9375 -0.28125q0.375 0 0.65625 0.171875q0.296875 0.15625 0.484375 0.40625l0 -2.0625l0.703125 0l0 5.734375l-0.65625 0zm-2.21875 -2.078125q0 0.796875 0.328125 1.203125q0.34375 0.390625 0.796875 0.390625q0.46875 0 0.78125 -0.375q0.328125 -0.375 0.328125 -1.15625q0 -0.84375 -0.328125 -1.234375q-0.328125 -0.40625 -0.8125 -0.40625q-0.46875 0 -0.78125 0.390625q-0.3125 0.375 -0.3125 1.1875zm6.6835938 1.5625q-0.390625 0.328125 -0.75 0.46875q-0.359375 0.140625 -0.78125 0.140625q-0.671875 0 -1.046875 -0.328125q-0.359375 -0.34375 -0.359375 -0.859375q0 -0.3125 0.125 -0.5625q0.140625 -0.25 0.359375 -0.390625q0.234375 -0.15625 0.515625 -0.234375q0.203125 -0.0625 0.625 -0.109375q0.859375 -0.109375 1.25 -0.25q0.015625 -0.140625 0.015625 -0.171875q0 -0.4375 -0.203125 -0.609375q-0.265625 -0.234375 -0.796875 -0.234375q-0.5 0 -0.734375 0.171875q-0.234375 0.171875 -0.359375 0.609375l-0.6875 -0.09375q0.09375 -0.4375 0.3125 -0.703125q0.21875 -0.28125 0.625 -0.421875q0.40625 -0.15625 0.9375 -0.15625q0.53125 0 0.859375 0.125q0.34375 0.125 0.5 0.328125q0.15625 0.1875 0.21875 0.46875q0.03125 0.1875 0.03125 0.65625l0 0.9375q0 0.96875 0.046875 1.234375q0.046875 0.265625 0.171875 0.5l-0.734375 0q-0.109375 -0.21875 -0.140625 -0.515625zm-0.0625 -1.5625q-0.375 0.15625 -1.140625 0.265625q-0.4375 0.0625 -0.625 0.140625q-0.171875 0.078125 -0.265625 0.234375q-0.09375 0.140625 -0.09375 0.328125q0 0.28125 0.203125 0.46875q0.21875 0.1875 0.625 0.1875q0.40625 0 0.71875 -0.171875q0.328125 -0.1875 0.46875 -0.5q0.109375 -0.234375 0.109375 -0.703125l0 -0.25zm1.8085938 3.671875l0 -5.75l0.640625 0l0 0.546875q0.21875 -0.3125 0.5 -0.46875q0.296875 -0.171875 0.703125 -0.171875q0.53125 0 0.9375 0.28125q0.40625 0.265625 0.609375 0.765625q0.203125 0.5 0.203125 1.09375q0 0.640625 -0.234375 1.15625q-0.21875 0.5 -0.65625 0.78125q-0.4375 0.265625 -0.90625 0.265625q-0.359375 0 -0.640625 -0.140625q-0.28125 -0.15625 -0.453125 -0.390625l0 2.03125l-0.703125 0zm0.640625 -3.640625q0 0.796875 0.3125 1.1875q0.328125 0.375 0.796875 0.375q0.46875 0 0.796875 -0.390625q0.328125 -0.40625 0.328125 -1.234375q0 -0.796875 -0.328125 -1.1875q-0.3125 -0.390625 -0.765625 -0.390625q-0.453125 0 -0.796875 0.421875q-0.34375 0.40625 -0.34375 1.21875zm5.3398438 1.421875l0.109375 0.609375q-0.296875 0.078125 -0.53125 0.078125q-0.390625 0 -0.609375 -0.125q-0.203125 -0.125 -0.296875 -0.3125q-0.078125 -0.203125 -0.078125 -0.84375l0 -2.390625l-0.515625 0l0 -0.546875l0.515625 0l0 -1.015625l0.703125 -0.421875l0 1.4375l0.703125 0l0 0.546875l-0.703125 0l0 2.4375q0 0.296875 0.03125 0.390625q0.046875 0.078125 0.125 0.125q0.078125 0.046875 0.234375 0.046875q0.125 0 0.3125 -0.015625zm3.5351562 -0.71875l0.71875 0.09375q-0.171875 0.640625 -0.640625 1.0q-0.453125 0.34375 -1.1875 0.34375q-0.90625 0 -1.4375 -0.5625q-0.53125 -0.5625 -0.53125 -1.578125q0 -1.046875 0.53125 -1.625q0.546875 -0.578125 1.40625 -0.578125q0.828125 0 1.359375 0.578125q0.53125 0.5625 0.53125 1.59375q0 0.0625 -0.015625 0.1875l-3.09375 0q0.046875 0.671875 0.390625 1.046875q0.34375 0.359375 0.875 0.359375q0.375 0 0.640625 -0.203125q0.28125 -0.203125 0.453125 -0.65625zm-2.3125 -1.125l2.3125 0q-0.046875 -0.53125 -0.265625 -0.796875q-0.328125 -0.40625 -0.875 -0.40625q-0.484375 0 -0.8125 0.328125q-0.328125 0.328125 -0.359375 0.875zm3.9023438 2.46875l0 -4.15625l0.640625 0l0 0.640625q0.234375 -0.453125 0.4375 -0.59375q0.21875 -0.140625 0.453125 -0.140625q0.359375 0 0.734375 0.234375l-0.25 0.65625q-0.25 -0.15625 -0.515625 -0.15625q-0.234375 0 -0.421875 0.140625q-0.171875 0.140625 -0.25 0.375q-0.125 0.375 -0.125 0.828125l0 2.171875l-0.703125 0z" fill-rule="nonzero"/><path fill="#000000" fill-opacity="0.0" d="m150.55573 118.05042c0 48.44979 -13.3858185 72.67516 -26.771652 96.899574c-13.385826 24.224411 -26.771652 48.44786 -26.771652 96.895706" fill-rule="evenodd"/><path stroke="#000000" stroke-width="1.0" stroke-linejoin="round" stroke-linecap="butt" d="m150.53293 121.47743l-0.01600647 1.0449295c-0.025726318 1.4674759 -0.06413269 2.9120407 -0.11477661 4.334427c-0.10131836 2.84478 -0.25164795 5.6008377 -0.4477234 8.274101c-0.39216614 5.346527 -0.9673462 10.361847 -1.6993713 15.093292c-1.4640808 9.462891 -3.5556183 17.790237 -6.06546 25.36055c-5.019684 15.140625 -11.712601 27.253067 -18.40551 39.36528c-6.692917 12.112198 -13.385826 24.224167 -18.40551 39.364044c-2.509842 7.5699463 -4.6013794 15.896881 -6.0654526 25.359314c-0.7320404 4.7312317 -1.3072128 9.746307 -1.699379 15.09259c-0.19607544 2.6731262 -0.34641266 5.429077 -0.44771576 8.273743c-0.05065155 1.4223328 -0.08905792 2.8668213 -0.11479187 4.3342285l-0.015991211 1.0447693" fill-rule="evenodd"/><path fill="#000000" stroke="#000000" stroke-width="1.0" stroke-linecap="butt" d="m150.53293 121.47743l1.1170807 1.1320419l-1.1040039 -3.0971832l-1.1451263 3.0822144z" fill-rule="evenodd"/><path fill="#000000" stroke="#000000" stroke-width="1.0" stroke-linecap="butt" d="m97.03523 308.4187l-1.117073 -1.1320496l1.1039963 3.097168l1.1451187 -3.0822144z" fill-rule="evenodd"/><path fill="#000000" fill-opacity="0.0" d="m213.39108 328.8796l0 0c0 -9.39917 7.6195374 -17.018707 17.018707 -17.018707l120.54526 0c4.5136414 0 8.842407 1.7930298 12.034027 4.9846497c3.1916504 3.1916504 4.98468 7.5204163 4.98468 12.034058l0 68.072815c0 9.39917 -7.6195374 17.018707 -17.018707 17.018707l-120.54526 0c-9.39917 0 -17.018707 -7.6195374 -17.018707 -17.018707z" fill-rule="evenodd"/><path stroke="#000000" stroke-width="1.0" stroke-linejoin="round" stroke-linecap="butt" d="m213.39108 328.8796l0 0c0 -9.39917 7.6195374 -17.018707 17.018707 -17.018707l120.54526 0c4.5136414 0 8.842407 1.7930298 12.034027 4.9846497c3.1916504 3.1916504 4.98468 7.5204163 4.98468 12.034058l0 68.072815c0 9.39917 -7.6195374 17.018707 -17.018707 17.018707l-120.54526 0c-9.39917 0 -17.018707 -7.6195374 -17.018707 -17.018707z" fill-rule="evenodd"/><path fill="#000000" d="m267.9363 368.776l0 -11.453125l5.078125 0q1.53125 0 2.328125 0.3125q0.796875 0.296875 1.265625 1.078125q0.484375 0.78125 0.484375 1.734375q0 1.21875 -0.796875 2.0625q-0.78125 0.828125 -2.4375 1.046875q0.609375 0.296875 0.921875 0.578125q0.65625 0.609375 1.25 1.515625l2.0 3.125l-1.90625 0l-1.515625 -2.390625q-0.671875 -1.03125 -1.109375 -1.578125q-0.421875 -0.546875 -0.765625 -0.765625q-0.328125 -0.21875 -0.6875 -0.296875q-0.25 -0.0625 -0.84375 -0.0625l-1.75 0l0 5.09375l-1.515625 0zm1.515625 -6.40625l3.25 0q1.046875 0 1.625 -0.203125q0.59375 -0.21875 0.890625 -0.6875q0.3125 -0.484375 0.3125 -1.03125q0 -0.8125 -0.59375 -1.328125q-0.59375 -0.53125 -1.859375 -0.53125l-3.625 0l0 3.78125zm9.3046875 2.25q0 -2.296875 1.28125 -3.40625q1.078125 -0.921875 2.6094055 -0.921875q1.71875 0 2.796875 1.125q1.09375 1.109375 1.09375 3.09375q0 1.59375 -0.484375 2.515625q-0.484375 0.921875 -1.40625 1.4375q-0.90625 0.5 -2.0 0.5q-1.7344055 0 -2.8125305 -1.109375q-1.078125 -1.125 -1.078125 -3.234375zm1.453125 0q0 1.59375 0.6875 2.390625q0.703125 0.796875 1.7500305 0.796875q1.046875 0 1.734375 -0.796875q0.703125 -0.796875 0.703125 -2.4375q0 -1.53125 -0.703125 -2.328125q-0.6875 -0.796875 -1.734375 -0.796875q-1.0469055 0 -1.7500305 0.796875q-0.6875 0.78125 -0.6875 2.375zm13.414093 4.15625l0 -1.21875q-0.96875 1.40625 -2.640625 1.40625q-0.734375 0 -1.375 -0.28125q-0.625 -0.28125 -0.9375 -0.703125q-0.3125 -0.4375 -0.4375 -1.046875q-0.078125 -0.421875 -0.078125 -1.3125l0 -5.140625l1.40625 0l0 4.59375q0 1.109375 0.078125 1.484375q0.140625 0.5625 0.5625 0.875q0.4375 0.3125 1.0625 0.3125q0.640625 0 1.1875 -0.3125q0.5625 -0.328125 0.78125 -0.890625q0.234375 -0.5625 0.234375 -1.625l0 -4.4375l1.40625 0l0 8.296875l-1.25 0zm6.5234375 -1.265625l0.203125 1.25q-0.59375 0.125 -1.0625 0.125q-0.765625 0 -1.1875 -0.234375q-0.421875 -0.25 -0.59375 -0.640625q-0.171875 -0.40625 -0.171875 -1.671875l0 -4.765625l-1.03125 0l0 -1.09375l1.03125 0l0 -2.0625l1.40625 -0.84375l0 2.90625l1.40625 0l0 1.09375l-1.40625 0l0 4.84375q0 0.609375 0.0625 0.78125q0.078125 0.171875 0.25 0.28125q0.171875 0.09375 0.484375 0.09375q0.234375 0 0.609375 -0.0625zm7.0546875 -1.40625l1.453125 0.171875q-0.34375 1.28125 -1.28125 1.984375q-0.921875 0.703125 -2.359375 0.703125q-1.828125 0 -2.890625 -1.125q-1.0625 -1.125 -1.0625 -3.140625q0 -2.09375 1.078125 -3.25q1.078125 -1.15625 2.796875 -1.15625q1.65625 0 2.703125 1.140625q1.0625 1.125 1.0625 3.171875q0 0.125 0 0.375l-6.1875 0q0.078125 1.375 0.765625 2.109375q0.703125 0.71875 1.734375 0.71875q0.78125 0 1.328125 -0.40625q0.546875 -0.40625 0.859375 -1.296875zm-4.609375 -2.28125l4.625 0q-0.09375 -1.046875 -0.53125 -1.5625q-0.671875 -0.8125 -1.734375 -0.8125q-0.96875 0 -1.640625 0.65625q-0.65625 0.640625 -0.71875 1.71875zm7.8203125 4.953125l0 -8.296875l1.265625 0l0 1.25q0.484375 -0.875 0.890625 -1.15625q0.40625 -0.28125 0.90625 -0.28125q0.703125 0 1.4375 0.453125l-0.484375 1.296875q-0.515625 -0.296875 -1.03125 -0.296875q-0.453125 0 -0.828125 0.28125q-0.359375 0.265625 -0.515625 0.765625q-0.234375 0.75 -0.234375 1.640625l0 4.34375l-1.40625 0z" fill-rule="nonzero"/><path fill="#000000" fill-opacity="0.0" d="m272.43045 311.86615l36.503937 0l0 29.070862l-36.503937 0z" fill-rule="evenodd"/><path fill="#000000" d="m283.4949 328.54614l0 -5.734375l0.75 0l0 5.0625l2.828125 0l0 0.671875l-3.578125 0zm3.8398438 0l2.203125 -5.734375l0.8125 0l2.34375 5.734375l-0.859375 0l-0.671875 -1.734375l-2.390625 0l-0.625 1.734375l-0.8125 0zm1.65625 -2.359375l1.9375 0l-0.59375 -1.578125q-0.265625 -0.71875 -0.40625 -1.1875q-0.109375 0.546875 -0.3125 1.09375l-0.625 1.671875zm4.3046875 2.359375l0 -5.734375l0.78125 0l3.0 4.5l0 -4.5l0.734375 0l0 5.734375l-0.78125 0l-3.0 -4.5l0 4.5l-0.734375 0z" fill-rule="nonzero"/><path fill="#000000" fill-opacity="0.0" d="m268.69815 384.03674l43.968506 0l0 29.070862l-43.968506 0z" fill-rule="evenodd"/><path fill="#000000" d="m283.1238 400.71674l-1.53125 -5.734375l0.78125 0l0.875 3.765625q0.140625 0.578125 0.234375 1.171875q0.21875 -0.921875 0.265625 -1.0625l1.09375 -3.875l0.90625 0l0.828125 2.90625q0.296875 1.078125 0.4375 2.03125q0.109375 -0.546875 0.28125 -1.25l0.90625 -3.6875l0.765625 0l-1.578125 5.734375l-0.734375 0l-1.203125 -4.359375q-0.15625 -0.546875 -0.171875 -0.671875q-0.09375 0.390625 -0.171875 0.671875l-1.21875 4.359375l-0.765625 0zm5.6132812 0l2.203125 -5.734375l0.8125 0l2.34375 5.734375l-0.859375 0l-0.671875 -1.734375l-2.390625 0l-0.625 1.734375l-0.8125 0zm1.65625 -2.359375l1.9375 0l-0.59375 -1.578125q-0.265625 -0.71875 -0.40625 -1.1875q-0.109375 0.546875 -0.3125 1.09375l-0.625 1.671875zm4.3046875 2.359375l0 -5.734375l0.78125 0l3.0 4.5l0 -4.5l0.734375 0l0 5.734375l-0.78125 0l-3.0 -4.5l0 4.5l-0.734375 0z" fill-rule="nonzero"/><g filter="url(#shadowFilter-p.1)"><use xlink:href="#p.1" transform="matrix(1.0 0.0 0.0 1.0 0.0 2.0)"/></g><defs><filter id="shadowFilter-p.1" filterUnits="userSpaceOnUse"><feGaussianBlur in="SourceAlpha" stdDeviation="2.0" result="blur"/><feComponentTransfer in="blur" color-interpolation-filters="sRGB"><feFuncR type="linear" slope="0" intercept="0.0"/><feFuncG type="linear" slope="0" intercept="0.0"/><feFuncB type="linear" slope="0" intercept="0.0"/><feFuncA type="linear" slope="0.5" intercept="0"/></feComponentTransfer></filter></defs><g id="p.1"><path fill="#000000" fill-opacity="0.0" d="m97.7769 27.03973l0 0c0 -10.054392 8.150696 -18.205088 18.205093 -18.205088l151.33786 0c4.8282776 0 9.458801 1.9180298 12.872925 5.3321466c3.4141235 3.4141169 5.3321533 8.044652 5.3321533 12.872941l0 72.81818c0 10.05439 -8.150696 18.205086 -18.205078 18.205086l-151.33786 0c-10.054398 0 -18.205093 -8.150696 -18.205093 -18.205086z" fill-rule="evenodd"/><path stroke="#000000" stroke-width="2.0" stroke-linejoin="round" stroke-linecap="butt" d="m97.7769 27.03973l0 0c0 -10.054392 8.150696 -18.205088 18.205093 -18.205088l151.33786 0c4.8282776 0 9.458801 1.9180298 12.872925 5.3321466c3.4141235 3.4141169 5.3321533 8.044652 5.3321533 12.872941l0 72.81818c0 10.05439 -8.150696 18.205086 -18.205078 18.205086l-151.33786 0c-10.054398 0 -18.205093 -8.150696 -18.205093 -18.205086z" fill-rule="evenodd"/><path fill="#000000" d="m146.67827 69.308815l0 -11.453125l5.078125 0q1.53125 0 2.328125 0.3125q0.796875 0.296875 1.265625 1.078125q0.484375 0.78125 0.484375 1.734375q0 1.21875 -0.796875 2.0625q-0.78125 0.828125 -2.4375 1.046875q0.609375 0.296875 0.921875 0.578125q0.65625 0.609375 1.25 1.515625l2.0 3.125l-1.90625 0l-1.515625 -2.390625q-0.671875 -1.03125 -1.109375 -1.578125q-0.421875 -0.546875 -0.765625 -0.765625q-0.328125 -0.21875 -0.6875 -0.296875q-0.25 -0.0625 -0.84375 -0.0625l-1.75 0l0 5.09375l-1.515625 0zm1.515625 -6.40625l3.25 0q1.046875 0 1.625 -0.203125q0.59375 -0.21875 0.890625 -0.6875q0.3125 -0.484375 0.3125 -1.03125q0 -0.8125 -0.59375 -1.328125q-0.59375 -0.53125 -1.859375 -0.53125l-3.625 0l0 3.78125zm15.2421875 5.375q-0.78125 0.671875 -1.5 0.953125q-0.71875 0.265625 -1.546875 0.265625q-1.375 0 -2.109375 -0.671875q-0.734375 -0.671875 -0.734375 -1.703125q0 -0.609375 0.28125 -1.109375q0.28125 -0.515625 0.71875 -0.8125q0.453125 -0.3125 1.015625 -0.46875q0.421875 -0.109375 1.25 -0.203125q1.703125 -0.203125 2.515625 -0.484375q0 -0.296875 0 -0.375q0 -0.859375 -0.390625 -1.203125q-0.546875 -0.484375 -1.609375 -0.484375q-0.984375 0 -1.46875 0.359375q-0.46875 0.34375 -0.6875 1.21875l-1.375 -0.1875q0.1875 -0.875 0.609375 -1.421875q0.4375 -0.546875 1.25 -0.828125q0.8125 -0.296875 1.875 -0.296875q1.0625 0 1.71875 0.25q0.671875 0.25 0.984375 0.625q0.3125 0.375 0.4375 0.953125q0.078125 0.359375 0.078125 1.296875l0 1.875q0 1.96875 0.078125 2.484375q0.09375 0.515625 0.359375 1.0l-1.46875 0q-0.21875 -0.4375 -0.28125 -1.03125zm-0.109375 -3.140625q-0.765625 0.3125 -2.296875 0.53125q-0.875 0.125 -1.234375 0.28125q-0.359375 0.15625 -0.5625 0.46875q-0.1875 0.296875 -0.1875 0.65625q0 0.5625 0.421875 0.9375q0.4375 0.375 1.25 0.375q0.8125 0 1.4375 -0.34375q0.640625 -0.359375 0.9375 -0.984375q0.234375 -0.46875 0.234375 -1.40625l0 -0.515625zm3.0390625 1.6875l1.390625 -0.21875q0.109375 0.84375 0.640625 1.296875q0.546875 0.4375 1.5 0.4375q0.96875 0 1.4375 -0.390625q0.46875 -0.40625 0.46875 -0.9375q0 -0.46875 -0.40625 -0.75q-0.296875 -0.1875 -1.4375 -0.46875q-1.546875 -0.390625 -2.15625 -0.671875q-0.59375 -0.296875 -0.90625 -0.796875q-0.296875 -0.5 -0.296875 -1.109375q0 -0.5625 0.25 -1.03125q0.25 -0.46875 0.6875 -0.78125q0.328125 -0.25 0.890625 -0.40625q0.578125 -0.171875 1.21875 -0.171875q0.984375 0 1.71875 0.28125q0.734375 0.28125 1.078125 0.765625q0.359375 0.46875 0.5 1.28125l-1.375 0.1875q-0.09375 -0.640625 -0.546875 -1.0q-0.453125 -0.359375 -1.265625 -0.359375q-0.96875 0 -1.390625 0.328125q-0.40625 0.3125 -0.40625 0.734375q0 0.28125 0.171875 0.5q0.171875 0.21875 0.53125 0.375q0.21875 0.078125 1.25 0.359375q1.484375 0.390625 2.078125 0.65625q0.59375 0.25 0.921875 0.734375q0.34375 0.484375 0.34375 1.203125q0 0.703125 -0.421875 1.328125q-0.40625 0.609375 -1.1875 0.953125q-0.765625 0.34375 -1.734375 0.34375q-1.625 0 -2.46875 -0.671875q-0.84375 -0.671875 -1.078125 -2.0zm8.5625 5.671875l0 -11.484375l1.28125 0l0 1.078125q0.453125 -0.640625 1.015625 -0.953125q0.578125 -0.3125 1.390625 -0.3125q1.0625 0 1.875 0.546875q0.8125 0.546875 1.21875 1.546875q0.421875 0.984375 0.421875 2.171875q0 1.28125 -0.46875 2.296875q-0.453125 1.015625 -1.328125 1.5625q-0.859375 0.546875 -1.828125 0.546875q-0.703125 0 -1.265625 -0.296875q-0.546875 -0.296875 -0.90625 -0.75l0 4.046875l-1.40625 0zm1.265625 -7.296875q0 1.609375 0.640625 2.375q0.65625 0.765625 1.578125 0.765625q0.9375 0 1.609375 -0.796875q0.671875 -0.796875 0.671875 -2.453125q0 -1.59375 -0.65625 -2.375q-0.65625 -0.796875 -1.5625 -0.796875q-0.890625 0 -1.59375 0.84375q-0.6875 0.84375 -0.6875 2.4375zm8.9296875 4.109375l-1.3125 0l0 -11.453125l1.40625 0l0 4.078125q0.890625 -1.109375 2.28125 -1.109375q0.765625 0 1.4375 0.3125q0.6875 0.296875 1.125 0.859375q0.453125 0.5625 0.703125 1.359375q0.25 0.78125 0.25 1.671875q0 2.140625 -1.0625 3.3125q-1.046875 1.15625 -2.53125 1.15625q-1.46875 0 -2.296875 -1.234375l0 1.046875zm-0.015625 -4.21875q0 1.5 0.40625 2.15625q0.65625 1.09375 1.796875 1.09375q0.921875 0 1.59375 -0.796875q0.671875 -0.8125 0.671875 -2.390625q0 -1.625 -0.65625 -2.390625q-0.640625 -0.78125 -1.546875 -0.78125q-0.921875 0 -1.59375 0.796875q-0.671875 0.796875 -0.671875 2.3125zm13.2890625 1.546875l1.453125 0.171875q-0.34375 1.28125 -1.28125 1.984375q-0.921875 0.703125 -2.359375 0.703125q-1.828125 0 -2.890625 -1.125q-1.0625 -1.125 -1.0625 -3.140625q0 -2.09375 1.078125 -3.25q1.078125 -1.15625 2.796875 -1.15625q1.65625 0 2.703125 1.140625q1.0625 1.125 1.0625 3.171875q0 0.125 0 0.375l-6.1875 0q0.078125 1.375 0.765625 2.109375q0.703125 0.71875 1.734375 0.71875q0.78125 0 1.328125 -0.40625q0.546875 -0.40625 0.859375 -1.296875zm-4.609375 -2.28125l4.625 0q-0.09375 -1.046875 -0.53125 -1.5625q-0.671875 -0.8125 -1.734375 -0.8125q-0.96875 0 -1.640625 0.65625q-0.65625 0.640625 -0.71875 1.71875zm7.8203125 4.953125l0 -8.296875l1.265625 0l0 1.25q0.484375 -0.875 0.890625 -1.15625q0.40625 -0.28125 0.90625 -0.28125q0.703125 0 1.4375 0.453125l-0.484375 1.296875q-0.515625 -0.296875 -1.03125 -0.296875q-0.453125 0 -0.828125 0.28125q-0.359375 0.265625 -0.515625 0.765625q-0.234375 0.75 -0.234375 1.640625l0 4.34375l-1.40625 0zm5.328125 0l0 -8.296875l1.265625 0l0 1.25q0.484375 -0.875 0.890625 -1.15625q0.40625 -0.28125 0.90625 -0.28125q0.703125 0 1.4375 0.453125l-0.484375 1.296875q-0.515625 -0.296875 -1.03125 -0.296875q-0.453125 0 -0.828125 0.28125q-0.359375 0.265625 -0.515625 0.765625q-0.234375 0.75 -0.234375 1.640625l0 4.34375l-1.40625 0zm5.28125 3.203125l-0.15625 -1.328125q0.453125 0.125 0.796875 0.125q0.46875 0 0.75 -0.15625q0.28125 -0.15625 0.46875 -0.4375q0.125 -0.203125 0.421875 -1.046875q0.046875 -0.109375 0.125 -0.34375l-3.140625 -8.3125l1.515625 0l1.71875 4.796875q0.34375 0.921875 0.609375 1.921875q0.234375 -0.96875 0.578125 -1.890625l1.765625 -4.828125l1.40625 0l-3.15625 8.4375q-0.5 1.375 -0.78125 1.890625q-0.375 0.6875 -0.859375 1.015625q-0.484375 0.328125 -1.15625 0.328125q-0.40625 0 -0.90625 -0.171875zm12.6796875 -3.203125l0 -11.453125l4.328125 0q1.140625 0 1.734375 0.109375q0.84375 0.140625 1.40625 0.53125q0.578125 0.390625 0.921875 1.109375q0.359375 0.703125 0.359375 1.5625q0 1.453125 -0.9375 2.46875q-0.921875 1.015625 -3.359375 1.015625l-2.9375 0l0 4.65625l-1.515625 0zm1.515625 -6.015625l2.96875 0q1.46875 0 2.078125 -0.546875q0.625 -0.546875 0.625 -1.53125q0 -0.71875 -0.375 -1.234375q-0.359375 -0.515625 -0.953125 -0.671875q-0.375 -0.109375 -1.40625 -0.109375l-2.9375 0l0 4.09375zm8.984375 -3.828125l0 -1.609375l1.40625 0l0 1.609375l-1.40625 0zm0 9.84375l0 -8.296875l1.40625 0l0 8.296875l-1.40625 0z" fill-rule="nonzero"/></g><path fill="#000000" fill-opacity="0.0" d="m131.75893 99.74587l37.593613 0c0.8091278 0 1.5851135 0.3214264 2.157257 0.8935623c0.57214355 0.57214355 0.8935547 1.3481293 0.8935547 2.157257l0 15.253731c0 2.0599365E-4 -1.5258789E-4 3.6621094E-4 -3.5095215E-4 3.6621094E-4l-43.6949 -3.6621094E-4l0 0c-1.9836426E-4 0 -3.6621094E-4 -1.6021729E-4 -3.6621094E-4 -3.5858154E-4l3.6621094E-4 -15.253372l0 0c0 -1.6849213 1.3659058 -3.0508194 3.050827 -3.0508194z" fill-rule="evenodd"/><path stroke="#000000" stroke-width="2.0" stroke-linejoin="round" stroke-linecap="butt" d="m131.75893 99.74587l37.593613 0c0.8091278 0 1.5851135 0.3214264 2.157257 0.8935623c0.57214355 0.57214355 0.8935547 1.3481293 0.8935547 2.157257l0 15.253731c0 2.0599365E-4 -1.5258789E-4 3.6621094E-4 -3.5095215E-4 3.6621094E-4l-43.6949 -3.6621094E-4l0 0c-1.9836426E-4 0 -3.6621094E-4 -1.6021729E-4 -3.6621094E-4 -3.5858154E-4l3.6621094E-4 -15.253372l0 0c0 -1.6849213 1.3659058 -3.0508194 3.050827 -3.0508194z" fill-rule="evenodd"/><path fill="#000000" d="m148.37018 110.681175l0.71875 0.09375q-0.171875 0.640625 -0.640625 1.0q-0.453125 0.34375 -1.1875 0.34375q-0.90625 0 -1.4375 -0.5625q-0.53125 -0.5625 -0.53125 -1.578125q0 -1.046875 0.53125 -1.625q0.546875 -0.578125 1.40625 -0.578125q0.828125 0 1.359375 0.578125q0.53125 0.5625 0.53125 1.59375q0 0.0625 -0.015625 0.1875l-3.09375 0q0.046875 0.671875 0.390625 1.046875q0.34375 0.359375 0.875 0.359375q0.375 0 0.640625 -0.203125q0.28125 -0.203125 0.453125 -0.65625zm-2.3125 -1.125l2.3125 0q-0.046875 -0.53125 -0.265625 -0.796875q-0.328125 -0.40625 -0.875 -0.40625q-0.484375 0 -0.8125 0.328125q-0.328125 0.328125 -0.359375 0.875zm5.4492188 1.84375l0.109375 0.609375q-0.296875 0.078125 -0.53125 0.078125q-0.390625 0 -0.609375 -0.125q-0.203125 -0.125 -0.296875 -0.3125q-0.078125 -0.203125 -0.078125 -0.84375l0 -2.390625l-0.515625 0l0 -0.546875l0.515625 0l0 -1.015625l0.703125 -0.421875l0 1.4375l0.703125 0l0 0.546875l-0.703125 0l0 2.4375q0 0.296875 0.03125 0.390625q0.046875 0.078125 0.125 0.125q0.078125 0.046875 0.234375 0.046875q0.125 0 0.3125 -0.015625zm0.69140625 0.625l0 -5.734375l0.703125 0l0 2.0625q0.484375 -0.578125 1.234375 -0.578125q0.46875 0 0.796875 0.1875q0.34375 0.1875 0.484375 0.515625q0.15625 0.3125 0.15625 0.921875l0 2.625l-0.703125 0l0 -2.625q0 -0.53125 -0.234375 -0.765625q-0.21875 -0.25 -0.640625 -0.25q-0.3125 0 -0.59375 0.171875q-0.265625 0.15625 -0.390625 0.4375q-0.109375 0.265625 -0.109375 0.765625l0 2.265625l-0.703125 0z" fill-rule="nonzero"/><path fill="#000000" fill-opacity="0.0" d="m201.62198 99.74587l44.481064 0c0.8091278 0 1.5851135 0.3214264 2.157257 0.8935623c0.57214355 0.57214355 0.89356995 1.3481293 0.89356995 2.157257l0 15.253738c0 2.2888184E-4 -1.9836426E-4 4.196167E-4 -4.272461E-4 4.196167E-4l-50.582275 -4.196167E-4l0 0c-2.4414062E-4 0 -4.272461E-4 -1.9073486E-4 -4.272461E-4 -4.272461E-4l4.272461E-4 -15.253311l0 0c0 -1.6849213 1.3658905 -3.0508194 3.0508118 -3.0508194z" fill-rule="evenodd"/><path stroke="#000000" stroke-width="2.0" stroke-linejoin="round" stroke-linecap="butt" d="m201.62198 99.74587l44.481064 0c0.8091278 0 1.5851135 0.3214264 2.157257 0.8935623c0.57214355 0.57214355 0.89356995 1.3481293 0.89356995 2.157257l0 15.253738c0 2.2888184E-4 -1.9836426E-4 4.196167E-4 -4.272461E-4 4.196167E-4l-50.582275 -4.196167E-4l0 0c-2.4414062E-4 0 -4.272461E-4 -1.9073486E-4 -4.272461E-4 -4.272461E-4l4.272461E-4 -15.253311l0 0c0 -1.6849213 1.3658905 -3.0508194 3.0508118 -3.0508194z" fill-rule="evenodd"/><path fill="#000000" d="m220.01291 106.29055l0.765625 0l0 3.3125q0 0.859375 -0.203125 1.375q-0.1875 0.5 -0.703125 0.828125q-0.515625 0.3125 -1.34375 0.3125q-0.796875 0 -1.3125 -0.265625q-0.515625 -0.28125 -0.734375 -0.8125q-0.21875 -0.53125 -0.21875 -1.4375l0 -3.3125l0.765625 0l0 3.3125q0 0.75 0.140625 1.109375q0.140625 0.34375 0.46875 0.53125q0.34375 0.1875 0.828125 0.1875q0.84375 0 1.1875 -0.375q0.359375 -0.375 0.359375 -1.453125l0 -3.3125zm1.7617188 3.890625l0.71875 -0.0625q0.046875 0.4375 0.234375 0.71875q0.1875 0.265625 0.578125 0.4375q0.390625 0.171875 0.875 0.171875q0.4375 0 0.765625 -0.125q0.328125 -0.140625 0.484375 -0.359375q0.171875 -0.234375 0.171875 -0.5q0 -0.265625 -0.15625 -0.46875q-0.15625 -0.203125 -0.515625 -0.328125q-0.234375 -0.09375 -1.03125 -0.28125q-0.78125 -0.1875 -1.09375 -0.359375q-0.40625 -0.21875 -0.609375 -0.53125q-0.203125 -0.328125 -0.203125 -0.71875q0 -0.4375 0.25 -0.8125q0.25 -0.375 0.71875 -0.5625q0.46875 -0.203125 1.046875 -0.203125q0.640625 0 1.125 0.203125q0.484375 0.203125 0.75 0.609375q0.265625 0.390625 0.28125 0.90625l-0.734375 0.046875q-0.046875 -0.546875 -0.390625 -0.8125q-0.34375 -0.28125 -1.0 -0.28125q-0.6875 0 -1.0 0.25q-0.3125 0.25 -0.3125 0.609375q0 0.3125 0.21875 0.5q0.21875 0.203125 1.140625 0.421875q0.921875 0.203125 1.265625 0.359375q0.5 0.234375 0.734375 0.59375q0.25 0.34375 0.25 0.796875q0 0.46875 -0.265625 0.875q-0.265625 0.390625 -0.75 0.625q-0.484375 0.21875 -1.109375 0.21875q-0.765625 0 -1.296875 -0.21875q-0.53125 -0.234375 -0.828125 -0.6875q-0.296875 -0.453125 -0.3125 -1.03125zm5.5703125 1.84375l0 -5.734375l2.140625 0q0.65625 0 1.046875 0.1875q0.40625 0.171875 0.625 0.53125q0.234375 0.359375 0.234375 0.75q0 0.375 -0.203125 0.703125q-0.203125 0.3125 -0.609375 0.515625q0.53125 0.15625 0.796875 0.53125q0.28125 0.359375 0.28125 0.859375q0 0.390625 -0.171875 0.75q-0.15625 0.34375 -0.40625 0.53125q-0.25 0.1875 -0.640625 0.28125q-0.375 0.09375 -0.921875 0.09375l-2.171875 0zm0.75 -3.328125l1.234375 0q0.515625 0 0.734375 -0.0625q0.28125 -0.078125 0.421875 -0.28125q0.15625 -0.203125 0.15625 -0.5q0 -0.28125 -0.140625 -0.5q-0.140625 -0.21875 -0.390625 -0.296875q-0.25 -0.078125 -0.875 -0.078125l-1.140625 0l0 1.71875zm0 2.65625l1.421875 0q0.375 0 0.515625 -0.03125q0.265625 -0.046875 0.4375 -0.15625q0.1875 -0.109375 0.296875 -0.3125q0.109375 -0.21875 0.109375 -0.484375q0 -0.328125 -0.171875 -0.5625q-0.15625 -0.234375 -0.453125 -0.328125q-0.28125 -0.09375 -0.828125 -0.09375l-1.328125 0l0 1.96875z" fill-rule="nonzero"/><path fill="#000000" fill-opacity="0.0" d="m203.021 71.267715l43.685043 0l0 29.07087l-43.685043 0z" fill-rule="evenodd"/><path fill="#000000" d="m217.30492 87.947716l-1.53125 -5.734375l0.78125 0l0.875 3.765625q0.140625 0.578125 0.234375 1.171875q0.21875 -0.921875 0.265625 -1.0625l1.09375 -3.875l0.90625 0l0.828125 2.90625q0.296875 1.078125 0.4375 2.03125q0.109375 -0.546875 0.28125 -1.25l0.90625 -3.6875l0.765625 0l-1.578125 5.734375l-0.734375 0l-1.203125 -4.359375q-0.15625 -0.546875 -0.171875 -0.671875q-0.09375 0.390625 -0.171875 0.671875l-1.21875 4.359375l-0.765625 0zm5.6132812 0l2.203125 -5.734375l0.8125 0l2.34375 5.734375l-0.859375 0l-0.671875 -1.734375l-2.390625 0l-0.625 1.734375l-0.8125 0zm1.65625 -2.359375l1.9375 0l-0.59375 -1.578125q-0.265625 -0.71875 -0.40625 -1.1875q-0.109375 0.546875 -0.3125 1.09375l-0.625 1.671875zm4.3046875 2.359375l0 -5.734375l0.78125 0l3.0 4.5l0 -4.5l0.734375 0l0 5.734375l-0.78125 0l-3.0 -4.5l0 4.5l-0.734375 0z" fill-rule="nonzero"/><path fill="#000000" fill-opacity="0.0" d="m132.54068 71.267715l36.503937 0l0 29.07087l-36.503937 0z" fill-rule="evenodd"/><path fill="#000000" d="m142.13443 87.947716l0 -5.734375l0.75 0l0 5.0625l2.828125 0l0 0.671875l-3.578125 0zm3.8398438 0l2.203125 -5.734375l0.8125 0l2.34375 5.734375l-0.859375 0l-0.671875 -1.734375l-2.390625 0l-0.625 1.734375l-0.8125 0zm1.65625 -2.359375l1.9375 0l-0.59375 -1.578125q-0.265625 -0.71875 -0.40625 -1.1875q-0.109375 0.546875 -0.3125 1.09375l-0.625 1.671875zm4.3046875 2.359375l0 -5.734375l0.78125 0l3.0 4.5l0 -4.5l0.734375 0l0 5.734375l-0.78125 0l-3.0 -4.5l0 4.5l-0.734375 0z" fill-rule="nonzero"/><path fill="#000000" fill-opacity="0.0" d="m164.74016 492.2651l53.417328 0" fill-rule="evenodd"/><path stroke="#000000" stroke-width="1.0" stroke-linejoin="round" stroke-linecap="butt" stroke-dasharray="1.0,3.0" d="m169.24016 492.2651l44.417328 0" fill-rule="evenodd"/><path stroke="#000000" stroke-width="1.0" stroke-linecap="butt" d="m169.24016 491.1593l-3.0381012 1.1058044l3.0381012 1.1057739z" fill-rule="evenodd"/><path stroke="#000000" stroke-width="1.0" stroke-linecap="butt" d="m213.65749 493.37088l3.038086 -1.1057739l-3.038086 -1.1058044z" fill-rule="evenodd"/><path fill="#000000" fill-opacity="0.0" d="m255.53543 220.35695l51.811035 86.99214" fill-rule="evenodd"/><path stroke="#ff0000" stroke-width="1.0" stroke-linejoin="round" stroke-linecap="butt" stroke-dasharray="1.0,3.0" d="m256.9682 222.7626l48.945496 82.18082" fill-rule="evenodd"/><path stroke="#ff0000" stroke-width="1.0" stroke-linecap="butt" d="m255.79129 220.78653c0.5456848 -0.3249817 1.2514954 -0.14608765 1.576477 0.3995819c0.3250122 0.5456848 0.14611816 1.2514954 -0.39956665 1.5764923c-0.5456848 0.32499695 -1.2514954 0.1461029 -1.5764923 -0.39956665c-0.32499695 -0.5456848 -0.1461029 -1.2515106 0.3995819 -1.5765076z" fill-rule="nonzero"/><path stroke="#ff0000" stroke-width="1.0" stroke-linecap="butt" d="m307.0906 306.9195c-0.5456848 0.3250122 -1.2514954 0.14611816 -1.5765076 -0.39956665c-0.3249817 -0.5456848 -0.14608765 -1.2514954 0.39959717 -1.5765076c0.5456848 -0.3249817 1.2514954 -0.14608765 1.576477 0.39959717c0.3250122 0.5456543 0.14611816 1.2514954 -0.39956665 1.576477z" fill-rule="nonzero"/><path fill="#000000" fill-opacity="0.0" d="m304.39633 419.70602l0 37.13388" fill-rule="evenodd"/><path stroke="#ff0000" stroke-width="1.0" stroke-linejoin="round" stroke-linecap="butt" stroke-dasharray="1.0,3.0" d="m304.39633 422.50604l0 31.533875" fill-rule="evenodd"/><path stroke="#ff0000" stroke-width="1.0" stroke-linecap="butt" d="m304.39633 420.20602c0.63513184 0 1.1499939 0.5148926 1.1499939 1.1500244c0 0.6351013 -0.51486206 1.1499939 -1.1499939 1.1499939c-0.63513184 0 -1.1499939 -0.5148926 -1.1499939 -1.1499939c0 -0.63513184 0.51486206 -1.1500244 1.1499939 -1.1500244z" fill-rule="nonzero"/><path stroke="#ff0000" stroke-width="1.0" stroke-linecap="butt" d="m304.39633 456.3399c-0.63513184 0 -1.1499939 -0.5148926 -1.1499939 -1.1500244c0 -0.6351013 0.51486206 -1.1499939 1.1499939 -1.1499939c0.63513184 0 1.1499939 0.5148926 1.1499939 1.1499939c0 0.63513184 -0.51486206 1.1500244 -1.1499939 1.1500244z" fill-rule="nonzero"/><path fill="#000000" fill-opacity="0.0" d="m170.0315 480.77954l42.015747 0.50393677" fill-rule="evenodd"/><path stroke="#ff0000" stroke-width="1.0" stroke-linejoin="round" stroke-linecap="butt" stroke-dasharray="1.0,3.0" d="m172.8313 480.8131l36.416138 0.43676758" fill-rule="evenodd"/><path stroke="#ff0000" stroke-width="1.0" stroke-linecap="butt" d="m170.53146 480.78552c0.0076141357 -0.6350708 0.5286255 -1.1437378 1.1637115 -1.1361084c0.6350708 0.007598877 1.1437378 0.5286255 1.1361237 1.1636963c-0.0076141357 0.6350708 -0.5286255 1.1437378 -1.1637115 1.1361084c-0.63508606 -0.007598877 -1.1437378 -0.5286255 -1.1361237 -1.1636963z" fill-rule="nonzero"/><path stroke="#ff0000" stroke-width="1.0" stroke-linecap="butt" d="m211.54729 481.27747c-0.0076293945 0.6350708 -0.52864075 1.1437378 -1.1637115 1.1361389c-0.63508606 -0.0076293945 -1.143753 -0.5286255 -1.1361237 -1.1637268c0.0076141357 -0.6350708 0.5286255 -1.1437378 1.1636963 -1.1361084c0.63508606 0.007598877 1.143753 0.5286255 1.1361389 1.1636963z" fill-rule="nonzero"/><path fill="#000000" fill-opacity="0.0" d="m61.381123 414.82153l63.59055 -0.85040283" fill-rule="evenodd"/><path stroke="#ff0000" stroke-width="1.0" stroke-linejoin="round" stroke-linecap="butt" stroke-dasharray="1.0,3.0" d="m64.18088 414.7841l57.99105 -0.7755127" fill-rule="evenodd"/><path stroke="#ff0000" stroke-width="1.0" stroke-linecap="butt" d="m61.88108 414.81485c-0.008491516 -0.6350708 0.49945068 -1.1567993 1.1345215 -1.1652832c0.6350708 -0.008483887 1.156784 0.49945068 1.1652756 1.1345215c0.008491516 0.6350708 -0.49945068 1.1567688 -1.1345215 1.1652832c-0.6350708 0.008483887 -1.156784 -0.49945068 -1.1652756 -1.1345215z" fill-rule="nonzero"/><path stroke="#ff0000" stroke-width="1.0" stroke-linecap="butt" d="m124.47172 413.9778c0.008491516 0.6350708 -0.49945068 1.1567688 -1.1345215 1.1652832c-0.6350708 0.008483887 -1.156784 -0.49945068 -1.1652756 -1.1345215c-0.008491516 -0.6350708 0.49945068 -1.1567993 1.1345215 -1.1652832c0.6350708 -0.008483887 1.156784 0.49945068 1.1652756 1.1345215z" fill-rule="nonzero"/><path fill="#000000" fill-opacity="0.0" d="m62.204742 414.82153l61.95276 0l0 29.070862l-61.95276 0z" fill-rule="evenodd"/><path fill="#ffff00" d="m74.72995 423.82153l36.902344 0l0 9.599976l-36.902344 0l0 -9.599976z" fill-rule="nonzero"/><path fill="#000000" fill-opacity="0.0" d="m74.72995 424.25934l36.902344 0l0 9.199219l-36.902344 0l0 -9.199219z" fill-rule="nonzero"/><path fill="#ff0000" d="m76.35495 431.50153l-1.53125 -5.734375l0.78125 0l0.875 3.765625q0.140625 0.578125 0.234375 1.171875q0.21875 -0.921875 0.265625 -1.0625l1.09375 -3.875l0.90625 0l0.828125 2.90625q0.296875 1.078125 0.4375 2.03125q0.109375 -0.546875 0.28125 -1.25l0.90625 -3.6875l0.765625 0l-1.578125 5.734375l-0.734375 0l-1.203125 -4.359375q-0.15625 -0.546875 -0.171875 -0.671875q-0.09375 0.390625 -0.171875 0.671875l-1.21875 4.359375l-0.765625 0zm6.4570312 -4.921875l0 -0.8125l0.703125 0l0 0.8125l-0.703125 0zm0 4.921875l0 -4.15625l0.703125 0l0 4.15625l-0.703125 0zm1.7617188 0l0 -4.15625l0.640625 0l0 0.640625q0.234375 -0.453125 0.4375 -0.59375q0.21875 -0.140625 0.453125 -0.140625q0.359375 0 0.734375 0.234375l-0.25 0.65625q-0.25 -0.15625 -0.515625 -0.15625q-0.234375 0 -0.421875 0.140625q-0.171875 0.140625 -0.25 0.375q-0.125 0.375 -0.125 0.828125l0 2.171875l-0.703125 0zm5.5234375 -1.34375l0.71875 0.09375q-0.171875 0.640625 -0.640625 1.0q-0.453125 0.34375 -1.1875 0.34375q-0.90625 0 -1.4375 -0.5625q-0.53125 -0.5625 -0.53125 -1.578125q0 -1.046875 0.53125 -1.625q0.546875 -0.578125 1.40625 -0.578125q0.828125 0 1.359375 0.578125q0.53125 0.5625 0.53125 1.59375q0 0.0625 -0.015625 0.1875l-3.09375 0q0.046875 0.671875 0.390625 1.046875q0.34375 0.359375 0.875 0.359375q0.375 0 0.640625 -0.203125q0.28125 -0.203125 0.453125 -0.65625zm-2.3125 -1.125l2.3125 0q-0.046875 -0.53125 -0.265625 -0.796875q-0.328125 -0.40625 -0.875 -0.40625q-0.484375 0 -0.8125 0.328125q-0.328125 0.328125 -0.359375 0.875zm3.7929688 2.8125l0.671875 0.109375q0.046875 0.3125 0.25 0.453125q0.25 0.203125 0.703125 0.203125q0.5 0 0.765625 -0.203125q0.265625 -0.1875 0.359375 -0.546875q0.046875 -0.21875 0.046875 -0.90625q-0.46875 0.546875 -1.15625 0.546875q-0.84375 0 -1.3125 -0.609375q-0.46875 -0.625 -0.46875 -1.484375q0 -0.59375 0.203125 -1.09375q0.21875 -0.515625 0.625 -0.78125q0.40625 -0.28125 0.96875 -0.28125q0.734375 0 1.203125 0.59375l0 -0.5l0.65625 0l0 3.59375q0 0.96875 -0.203125 1.375q-0.203125 0.40625 -0.625 0.640625q-0.421875 0.234375 -1.046875 0.234375q-0.75 0 -1.203125 -0.34375q-0.453125 -0.328125 -0.4375 -1.0zm0.578125 -2.5q0 0.828125 0.3125 1.203125q0.328125 0.375 0.828125 0.375q0.484375 0 0.8125 -0.375q0.328125 -0.375 0.328125 -1.171875q0 -0.765625 -0.34375 -1.140625q-0.34375 -0.390625 -0.8125 -0.390625q-0.46875 0 -0.796875 0.375q-0.328125 0.375 -0.328125 1.125zm6.7148438 2.15625l0 -0.609375q-0.484375 0.703125 -1.3125 0.703125q-0.375 0 -0.703125 -0.140625q-0.3125 -0.140625 -0.46875 -0.34375q-0.140625 -0.21875 -0.203125 -0.53125q-0.046875 -0.203125 -0.046875 -0.65625l0 -2.578125l0.703125 0l0 2.3125q0 0.546875 0.046875 0.734375q0.0625 0.28125 0.265625 0.4375q0.21875 0.15625 0.546875 0.15625q0.3125 0 0.578125 -0.15625q0.28125 -0.171875 0.390625 -0.4375q0.125 -0.28125 0.125 -0.8125l0 -2.234375l0.703125 0l0 4.15625l-0.625 0zm4.4335938 -0.515625q-0.390625 0.328125 -0.75 0.46875q-0.359375 0.140625 -0.78125 0.140625q-0.671875 0 -1.046875 -0.328125q-0.359375 -0.34375 -0.359375 -0.859375q0 -0.3125 0.125 -0.5625q0.140625 -0.25 0.359375 -0.390625q0.234375 -0.15625 0.515625 -0.234375q0.203125 -0.0625 0.625 -0.109375q0.859375 -0.109375 1.25 -0.25q0.015625 -0.140625 0.015625 -0.171875q0 -0.4375 -0.203125 -0.609375q-0.265625 -0.234375 -0.796875 -0.234375q-0.5 0 -0.734375 0.171875q-0.234375 0.171875 -0.359375 0.609375l-0.6875 -0.09375q0.09375 -0.4375 0.3125 -0.703125q0.21875 -0.28125 0.625 -0.421875q0.40625 -0.15625 0.9375 -0.15625q0.53125 0 0.859375 0.125q0.34375 0.125 0.5 0.328125q0.15625 0.1875 0.21875 0.46875q0.03125 0.1875 0.03125 0.65625l0 0.9375q0 0.96875 0.046875 1.234375q0.046875 0.265625 0.171875 0.5l-0.734375 0q-0.109375 -0.21875 -0.140625 -0.515625zm-0.0625 -1.5625q-0.375 0.15625 -1.140625 0.265625q-0.4375 0.0625 -0.625 0.140625q-0.171875 0.078125 -0.265625 0.234375q-0.09375 0.140625 -0.09375 0.328125q0 0.28125 0.203125 0.46875q0.21875 0.1875 0.625 0.1875q0.40625 0 0.71875 -0.171875q0.328125 -0.1875 0.46875 -0.5q0.109375 -0.234375 0.109375 -0.703125l0 -0.25zm1.7929688 2.078125l0 -4.15625l0.640625 0l0 0.640625q0.234375 -0.453125 0.4375 -0.59375q0.21875 -0.140625 0.453125 -0.140625q0.359375 0 0.734375 0.234375l-0.25 0.65625q-0.25 -0.15625 -0.515625 -0.15625q-0.234375 0 -0.421875 0.140625q-0.171875 0.140625 -0.25 0.375q-0.125 0.375 -0.125 0.828125l0 2.171875l-0.703125 0zm5.3671875 0l0 -0.53125q-0.390625 0.625 -1.15625 0.625q-0.5 0 -0.921875 -0.265625q-0.40625 -0.28125 -0.640625 -0.765625q-0.21875 -0.5 -0.21875 -1.140625q0 -0.609375 0.203125 -1.109375q0.203125 -0.515625 0.609375 -0.78125q0.421875 -0.28125 0.9375 -0.28125q0.375 0 0.65625 0.171875q0.296875 0.15625 0.484375 0.40625l0 -2.0625l0.703125 0l0 5.734375l-0.65625 0zm-2.21875 -2.078125q0 0.796875 0.328125 1.203125q0.34375 0.390625 0.796875 0.390625q0.46875 0 0.78125 -0.375q0.328125 -0.375 0.328125 -1.15625q0 -0.84375 -0.328125 -1.234375q-0.328125 -0.40625 -0.8125 -0.40625q-0.46875 0 -0.78125 0.390625q-0.3125 0.375 -0.3125 1.1875z" fill-rule="nonzero"/><path fill="#000000" fill-opacity="0.0" d="m111.63229 424.25934l0 0l0 9.199219l0 0l0 -9.199219z" fill-rule="nonzero"/><path fill="#000000" fill-opacity="0.0" d="m46.66142 396.458l93.03937 0l0 46.204712l-93.03937 0z" fill-rule="evenodd"/><path stroke="#000000" stroke-width="2.0" stroke-linejoin="round" stroke-dasharray="0.0,8.0" d="m46.66142 396.458l93.03937 0l0 46.204712l-93.03937 0z" fill-rule="evenodd"/></g></svg>